<svg width="161" height="38" fill="none" xmlns="http://www.w3.org/2000/svg" class=""><path d="M61.263 7.819a7.48 7.48 0 00-3.965 1.213 7.51 7.51 0 00-2.716 3.141V8.226h-5.178V38h5.354v-9.87s1.334 4.101 7.371 4.101c5.286 0 9.798-4.88 9.798-12.114 0-7.232-4.47-12.298-10.664-12.298zm-.797 19.088c-3.274 0-5.708-2.486-5.708-6.745 0-4.304 2.434-7.019 5.708-7.019 3.363 0 5.664 2.804 5.664 6.974 0 4.172-2.3 6.79-5.664 6.79zM17.098 0v11.106C15.333 8.4 13.17 7.834 10.759 7.834 4.51 7.834 0 12.758 0 20.055s4.509 12.177 10.76 12.177c2.41 0 5.712-1.597 6.74-4.33v4.15h5.222V0h-5.624zm-5.536 26.86c-3.393 0-5.714-2.597-5.714-6.805s2.321-6.849 5.714-6.849c3.304 0 5.76 2.507 5.76 6.804 0 4.343-2.456 6.85-5.76 6.85zM88.445 23.135c0 2.307-1.776 3.727-4.514 3.727-2.124 0-4.38-.951-4.38-4.632V8.226h-5.16v15.103c0 4.837 2.588 8.858 8.08 8.858 2.856 0 5.876-2.17 6.373-4.069v3.891h4.952V8.226h-5.351v14.909zM101.041 3.485s-.233 4.739-4.504 4.739v5.016h2.544v12.08c0 4.792 2.212 6.877 6.46 6.877a16.03 16.03 0 004.238-.576v-5.448a7.61 7.61 0 01-3.176.7c-1.15 0-2.145-.488-2.145-1.997V13.24h8.299l5.445 18.001-2.55 6.758h5.561l10.711-29.773h-5.752l-5.045 15.486-4.823-15.486h-11.846V3.485h-3.417zM30.915 17.534h10.352c-.136-2.979-1.767-4.814-4.75-4.814-3.117 0-5.196 1.931-5.603 4.814zm6.292 14.754c-6.733 0-12.077-4.616-12.077-12.015 0-7.928 5.152-12.454 11.388-12.454 5.559 0 10.262 3.468 10.262 12.07 0 .576-.045 1.204-.09 1.877H30.87c.226 3.459 3.388 5.14 7.246 5.14 4.985 0 7.592-1.786 7.592-1.786l.03 5.113s-2.892 2.055-8.53 2.055" fill="#fff"></path><path d="M148.966 15.358l-.024.043a5.198 5.198 0 00-.485 1.134l-3.14 10.713h4.608l2.773-9.463a.767.767 0 01.569-.528.753.753 0 01.734.25l4.547 4.9 2.345-4.083-3.522-3.684a5.177 5.177 0 00-4.387-1.814 5.187 5.187 0 00-4.018 2.532zM145.898 13.617a5.208 5.208 0 00-.762-1.03l-7.684-8.085-2.407 3.892 6.891 7.251a.767.767 0 01.172.758.764.764 0 01-.584.512l-6.504 1.5 2.353 4.077 4.943-1.216a5.172 5.172 0 003.759-2.904 5.198 5.198 0 00-.177-4.755zM148.906 11.887h.048c.412 0 .822-.049 1.222-.146L161 9.11l-2.158-4.038-9.707 2.36a.755.755 0 01-.89-.993l1.956-6.398-4.698.005-1.421 4.9a5.207 5.207 0 00.628 4.717 5.182 5.182 0 004.196 2.223" fill="#FD6C63"></path></svg>