<svg data-v-3a111122="" width="120px" height="40px" fill="none" xmlns="http://www.w3.org/2000/svg" alt="Deputy on Apple Store" class=""><path data-v-3a111122="" fill-rule="evenodd" clip-rule="evenodd" d="M31.6 26.2c-.6 1.4-.9 2-1.7 3.2-1.1 1.7-2.7 3.8-4.7 3.9-1.8 0-2.2-1.1-4.6-1.1-2.4 0-2.9 1.1-4.6 1.1-2 0-3.5-1.9-4.6-3.7-3.2-4.8-3.5-10.4-1.5-13.4 1.4-2.1 3.6-3.4 5.6-3.4 2.1 0 3.4 1.1 5.1 1.1 1.7 0 2.7-1.1 5.1-1.1 1.8 0 3.8 1 5.1 2.7-4.5 2.6-3.8 9 .8 10.7z" fill="#FEFEFE"></path><path data-v-3a111122="" fill-rule="evenodd" clip-rule="evenodd" d="M23.8 11c.9-1.1 1.5-2.7 1.3-4.3-1.4.1-3.1 1-4.1 2.2-.9 1.1-1.6 2.7-1.3 4.2 1.6 0 3.2-.9 4.1-2.1zm18.5 7.4c.2.6.3 1.2.5 1.9l1.2 3.5h-3.5l1.2-3.5c.3-.6.4-1.3.6-1.9zm-1.1-2.2l-4.5 13.3h2.1l1.3-4.1h4.4l1.4 4.1H48l-4.5-13.3h-2.3zm12.2 5.1c1.8 0 2.6 1.7 2.6 3.3 0 2.1-1 3.4-2.7 3.4-1.1 0-2.1-.8-2.4-1.9 0-.2-.1-.4-.1-.6v-1.6c0-.1 0-.3.1-.5v-.2c.3-1.1 1.3-1.9 2.5-1.9zm.5-1.7c-1.4 0-2.5.5-3.2 1.5l-.1-1.3h-1.8v.2c.1.8.1 1.7.1 3v10.2h2v-4.8c.6.7 1.6 1.2 2.8 1.2 1.2 0 2.3-.5 3.1-1.3.9-.9 1.3-2.3 1.3-3.9 0-1.4-.4-2.6-1.2-3.5-.8-.8-1.9-1.3-3-1.3zm9.8 1.7c1.8 0 2.6 1.7 2.6 3.3 0 2.1-1 3.4-2.7 3.4-1.1 0-2.1-.8-2.4-1.9 0-.2-.1-.4-.1-.6v-1.6c0-.1 0-.3.1-.5v-.2c.4-1.1 1.4-1.9 2.5-1.9zm.5-1.7c-1.4 0-2.5.5-3.2 1.5v-1.2h-1.8v.2c.1.8.1 1.7.1 3v10.2h2v-4.8c.6.7 1.6 1.2 2.8 1.2 1.2 0 2.3-.5 3.1-1.3.9-.9 1.3-2.3 1.3-3.9 0-1.4-.4-2.6-1.2-3.5-.9-.9-1.9-1.4-3.1-1.4zm13 2.2c-1.9-.7-2.5-1.3-2.5-2.4 0-.9.7-1.8 2.3-1.8 1.3 0 2.1.5 2.4.6l.2.1.6-1.7H80c-.3-.2-1.3-.7-2.9-.7-2.6 0-4.4 1.5-4.4 3.7 0 1.7 1.1 3 3.5 3.8 1.7.6 2.3 1.3 2.3 2.4 0 1.3-1 2.1-2.6 2.1-1 0-2.1-.3-2.9-.8V27l-.5 1.7.1.1c.8.5 2.2.9 3.4.9 3.5 0 4.7-2.1 4.7-3.9-.1-1.9-1.1-3-3.5-4zm7.1-4.2l-2 .6v1.7h-1.4v1.6h1.4v4.9c0 1.2.2 2 .7 2.5.5.5 1.1.8 1.9.8.8 0 1.3-.1 1.6-.2h.1l-.1-1.6-.2.1c-.3-.1-.5 0-.9 0-.8 0-1.1-.5-1.1-1.6v-4.9h2.4v-1.6h-2.4v-2.3zm7.3 3.6c1.8 0 2.6 1.8 2.6 3.4 0 2-1.1 3.5-2.7 3.5-1.5 0-2.6-1.4-2.6-3.4 0-1.7.9-3.5 2.7-3.5zm.1-1.6c-2.8 0-4.8 2.1-4.8 5.1 0 2.9 1.9 4.9 4.6 4.9 2.3 0 4.8-1.6 4.8-5.1 0-1.4-.4-2.7-1.3-3.6-.8-.8-2-1.3-3.3-1.3zm10.799.1h-.1c-.2 0-.3-.1-.5-.1-1.1 0-2 .6-2.5 1.6l-.1-1.4h-1.8v.2c.1.8.1 1.7.1 2.9v6.6h2v-5.1c0-.3 0-.5.1-.8.2-1.2 1.1-2 2.1-2h.7v-1.9zm4.4 1.5c.6 0 1.1.2 1.5.6.6.6.7 1.5.7 1.9h-4.6c.2-1.3.9-2.5 2.4-2.5zm.1-1.6c-2.7 0-4.6 2.1-4.6 5.2 0 2.9 1.9 4.8 4.7 4.8 1.5 0 2.6-.3 3.2-.6l.1-.1-.4-1.5-.2.1c-.5.2-1.3.4-2.5.4-.9 0-2.9-.3-3-2.9h6.5v-.1c0-.2.1-.5.1-.8.1-2-.9-4.5-3.9-4.5zm-69.4-6.9h.9c1.9 0 3-1 3-2.7 0-1.5-.9-2.4-2.8-2.4-.5 0-.8 0-1.1.1v5zm-.9-5.6c.6 0 1.2-.1 1.9-.1 1.3 0 2.2.3 2.8.8.6.5 1 1.2 1 2.3 0 1-.4 1.9-1 2.4-.7.6-1.7.9-3.1.9-.7 0-1.2 0-1.7-.1V7.1h.1zm9 5.7c.9 0 1.5-.7 1.5-1.8 0-.8-.4-1.7-1.5-1.7s-1.5.9-1.5 1.8c0 1 .6 1.7 1.5 1.7zm0 .6c-1.4 0-2.4-.9-2.4-2.3 0-1.5 1.1-2.4 2.5-2.4s2.4.9 2.4 2.3c0 1.7-1.3 2.4-2.5 2.4zm3.9-4.6l.7 2.3c.1.5.3 1 .4 1.4.1-.5.3-.9.4-1.4l.9-2.3h.8l.8 2.3c.2.5.3 1 .4 1.5.1-.5.2-.9.4-1.5l.7-2.3h.9l-1.6 4.5h-.8l-.8-2.2c-.2-.5-.3-1-.4-1.5-.1.5-.3 1-.5 1.5l-.8 2.1h-.8l-1.5-4.5h.8v.1zm7.3 1.2V8.8h.8l.1.7c.2-.4.8-.8 1.7-.8.7 0 1.8.4 1.8 1.9v2.7h-.9v-2.6c0-.7-.3-1.3-1.2-1.3-.6 0-1.1.4-1.2.8 0 .1-.1.3-.1.4v2.7H57V10h-.1z" fill="#FEFEFE"></path><g data-v-3a111122="" fill-rule="evenodd" clip-rule="evenodd"><path data-v-3a111122="" d="M62.682 13.344h.9v-6.6h-.9v6.6zM67.181 12.844c.9 0 1.5-.8 1.5-1.8 0-.8-.4-1.7-1.5-1.7-1 0-1.5.9-1.5 1.7 0 1 .6 1.8 1.5 1.8zm0 .6c-1.3 0-2.4-.9-2.4-2.3 0-1.5 1.1-2.4 2.5-2.4s2.4.9 2.4 2.3c0 1.7-1.3 2.4-2.5 2.4zm6.3-2.4c-1 0-2.1.1-2.1 1 0 .5.4.8.9.8.7 0 1.1-.4 1.2-.8v-1zm.9 1.2c0 .4 0 .8.1 1.1h-.9v-.6c-.3.4-.9.7-1.6.7-1 0-1.5-.6-1.5-1.3 0-1.1 1.1-1.7 3-1.7v-.1c0-.4-.1-1.1-1.1-1-.5 0-1 .1-1.3.3l-.3-.5c.4-.2 1-.4 1.7-.4 1.5 0 1.9.9 1.9 1.8v1.7zm4.9-1.6v-.4c-.1-.5-.6-.9-1.3-.9-.9 0-1.5.7-1.5 1.7 0 .9.5 1.7 1.5 1.7.6 0 1.2-.4 1.3-1v-1.1zm.9-3.9v6.7h-.8v-.8c-.3.5-.9.9-1.7.9-1.2 0-2.2-.9-2.2-2.3 0-1.5 1-2.4 2.3-2.4.8 0 1.3.3 1.5.7v-2.7h.9v-.1zm5.8 6.1c.9 0 1.5-.7 1.5-1.8 0-.8-.4-1.7-1.5-1.7s-1.5.9-1.5 1.8.6 1.7 1.5 1.7zm0 .6c-1.3 0-2.4-.9-2.4-2.3 0-1.5 1.1-2.4 2.5-2.4s2.4.9 2.4 2.3c0 1.7-1.3 2.4-2.5 2.4zm3.6-3.4v-1.2h.8l.1.7c.2-.4.8-.8 1.7-.8.7 0 1.8.4 1.8 1.9v2.7h-.9v-2.6c0-.7-.3-1.3-1.2-1.3-.6 0-1.1.4-1.2.8 0 .1-.1.3-.1.4v2.7h-.9v-3.3h-.1zm9.1-2.3v1.1h1.3v.6h-1.3v2.4c0 .6.2.9.7.9.2 0 .4 0 .5-.1v.6c-.2.1-.5.1-.8.1-.4 0-.8-.1-1-.3-.2-.3-.4-.7-.4-1.2v-2.4h-.8v-.6h.8v-.8l1-.3zm2.3-1h.9v2.8c.1-.2.4-.4.7-.6.3-.1.6-.2.9-.2.7 0 1.8.4 1.8 1.9v2.7h-.9v-2.6c0-.7-.3-1.3-1.2-1.3-.6 0-1 .4-1.2.8-.1.1-.1.2-.1.4v2.7h-.9v-6.6zm9 3.9c0-.5-.2-1.3-1.3-1.3-.9 0-1.3.8-1.4 1.3h2.7zm-2.7.6c0 1.1.8 1.6 1.7 1.6.7 0 1.1-.1 1.4-.2l.2.6c-.3 0-.9.2-1.7.2-1.5 0-2.5-.9-2.5-2.3s.9-2.4 2.4-2.4c1.6 0 2.1 1.3 2.1 2.1v.4h-3.6z" fill="#FEFEFE"></path><path data-v-3a111122="" d="M115.554.8c2.055 0 3.737 1.888 3.737 4.2v30c0 2.312-1.671 4.2-3.737 4.2H4.446C2.391 39.2.71 37.312.71 35V5c0-2.312 1.67-4.2 3.737-4.2h111.108zm0-.8H4.446C1.996 0 0 2.254 0 5v30c0 2.756 1.996 5 4.446 5h111.108c2.448 0 4.446-2.244 4.446-5V5c0-2.746-1.998-5-4.446-5z" fill="#fff"></path></g></svg>