<svg data-v-3a111122="" width="120px" height="40px" fill="none" xmlns="http://www.w3.org/2000/svg" alt="Deputy on Google Play" class=""><path data-v-3a111122="" fill-rule="evenodd" clip-rule="evenodd" d="M115.554.8c2.055 0 3.737 1.888 3.737 4.2v30c0 2.312-1.671 4.2-3.737 4.2H4.446C2.391 39.2.71 37.312.71 35V5c0-2.312 1.67-4.2 3.737-4.2h111.108zm0-.8H4.446C1.996 0 0 2.254 0 5v30c0 2.756 1.996 5 4.446 5h111.108c2.448 0 4.446-2.244 4.446-5V5c0-2.746-1.998-5-4.446-5z" fill="#fff"></path><path data-v-3a111122="" d="M63.217 13.724c-.801 0-1.477-.28-2.011-.832a2.834 2.834 0 01-.813-2.031c0-.806.274-1.488.813-2.029C61.738 8.28 62.413 8 63.215 8c.792 0 1.468.28 2.01.832a2.83 2.83 0 01.813 2.029c-.009.808-.282 1.49-.812 2.029-.532.556-1.208.834-2.01.834zm-23.844 0a2.793 2.793 0 01-2.02-.821c-.552-.543-.833-1.23-.833-2.04s.28-1.497.833-2.04c.545-.545 1.225-.82 2.02-.82.388 0 .766.076 1.128.233.355.153.644.36.858.614l.053.064-.598.587-.062-.073c-.337-.401-.79-.598-1.388-.598-.534 0-1 .19-1.384.565-.387.378-.583.872-.583 1.47 0 .599.196 1.093.583 1.47.384.376.85.566 1.384.566.57 0 1.049-.19 1.422-.565.22-.221.357-.53.406-.92h-1.919v-.827h2.742l.011.076c.02.139.04.282.04.415 0 .761-.23 1.377-.684 1.832-.517.538-1.192.812-2.01.812zm31.703-.117h-.846l-2.59-4.143.023.746v3.395h-.846V8.119h.965l.027.042 2.435 3.903-.022-.744v-3.2h.854v5.487zm-14.213 0h-.856V8.945H54.52v-.826h3.826v.826H56.86v4.662h.002zm-3.04 0h-.854V8.12h.855v5.488zm-4.8 0h-.855V8.945h-1.486v-.826h3.826v.826h-1.486v4.662zm-2.882-.009h-3.276V8.12h3.276v.826h-2.42v1.505h2.184v.817h-2.183v1.506h2.42v.825zm15.692-1.273a1.89 1.89 0 001.384.574c.554 0 1.007-.188 1.384-.574.375-.376.565-.868.565-1.462s-.19-1.088-.563-1.461a1.894 1.894 0 00-1.384-.574c-.554 0-1.007.187-1.382.574-.375.375-.565.867-.565 1.461 0 .594.188 1.089.56 1.462z" fill="#fff"></path><path data-v-3a111122="" fill-rule="evenodd" clip-rule="evenodd" d="M60.314 21.27c-2.087 0-3.778 1.583-3.778 3.766 0 2.164 1.703 3.766 3.778 3.766 2.086 0 3.777-1.594 3.777-3.766 0-2.183-1.691-3.766-3.777-3.766zm0 6.04c-1.142 0-2.124-.945-2.124-2.283 0-1.357.985-2.282 2.124-2.282 1.141 0 2.123.925 2.123 2.282.003 1.347-.982 2.283-2.123 2.283zm-8.241-6.04c-2.086 0-3.777 1.583-3.777 3.766 0 2.164 1.702 3.766 3.777 3.766 2.086 0 3.777-1.594 3.777-3.766 0-2.183-1.693-3.766-3.777-3.766zm0 6.04c-1.142 0-2.124-.945-2.124-2.283 0-1.357.985-2.282 2.124-2.282 1.141 0 2.123.925 2.123 2.282 0 1.347-.982 2.283-2.123 2.283zm-9.806-4.89v1.594h3.825c-.117.894-.412 1.554-.865 2.007-.56.56-1.426 1.17-2.951 1.17-2.352 0-4.19-1.899-4.19-4.25 0-2.35 1.838-4.25 4.19-4.25 1.269 0 2.194.502 2.88 1.142l1.13-1.13c-.953-.914-2.222-1.614-4.002-1.614-3.225 0-5.931 2.627-5.931 5.843 0 3.226 2.704 5.844 5.931 5.844 1.742 0 3.049-.57 4.082-1.643 1.053-1.053 1.386-2.538 1.386-3.737 0-.373-.028-.709-.088-.994h-5.4c.003-.002.003.018.003.018zm40.11 1.24c-.316-.845-1.27-2.399-3.226-2.399-1.938 0-3.55 1.526-3.55 3.766 0 2.115 1.594 3.767 3.738 3.767 1.722 0 2.724-1.054 3.137-1.672l-1.278-.856c-.424.629-1.014 1.042-1.85 1.042-.846 0-1.438-.384-1.83-1.142l5.035-2.086c0 .003-.177-.42-.177-.42zm-5.135 1.26c-.04-1.456 1.13-2.195 1.966-2.195.66 0 1.21.324 1.398.797l-3.364 1.397zm-4.091 3.648h1.653V17.504h-1.653v11.064zm-2.715-6.461h-.06c-.373-.444-1.082-.846-1.987-.846-1.879 0-3.61 1.654-3.61 3.777 0 2.115 1.722 3.749 3.61 3.749.894 0 1.614-.404 1.987-.857h.06v.541c0 1.437-.769 2.212-2.007 2.212-1.014 0-1.643-.728-1.899-1.338l-1.437.6c.413.994 1.514 2.224 3.334 2.224 1.938 0 3.58-1.141 3.58-3.925v-6.758h-1.563v.62h-.008zm-1.9 5.203c-1.14 0-2.094-.954-2.094-2.272 0-1.329.954-2.291 2.095-2.291 1.13 0 2.007.973 2.007 2.291.01 1.318-.875 2.272-2.007 2.272zm21.582-9.806h-3.953v11.064h1.653v-4.19h2.303c1.83 0 3.629-1.326 3.629-3.433 0-2.106-1.793-3.441-3.632-3.441zm.049 5.329h-2.351v-3.797h2.35c1.24 0 1.94 1.022 1.94 1.898 0 .868-.71 1.899-1.94 1.899zm10.21-1.583c-1.201 0-2.44.532-2.952 1.691l1.466.61c.316-.61.894-.817 1.506-.817.857 0 1.722.512 1.742 1.426v.117c-.296-.168-.945-.424-1.722-.424-1.583 0-3.188.865-3.188 2.488 0 1.485 1.298 2.44 2.744 2.44 1.111 0 1.722-.502 2.104-1.082h.06v.856h1.594v-4.238c0-1.974-1.466-3.067-3.354-3.067zm-.207 6.06c-.541 0-1.299-.265-1.299-.945 0-.856.945-1.181 1.752-1.181.728 0 1.072.157 1.505.373a1.99 1.99 0 01-1.958 1.753zm9.376-5.824l-1.899 4.8h-.06l-1.967-4.8h-1.779l2.952 6.71-1.682 3.728h1.721l4.541-10.438h-1.827zm-14.885 7.082h1.654V17.504h-1.653v11.064z" fill="#fff"></path><path data-v-3a111122="" fill-rule="evenodd" clip-rule="evenodd" d="M9.236 8.68c-.256.276-.404.697-.404 1.25v19.574c0 .552.148.973.413 1.238l.068.06 10.968-10.967v-.245L9.304 8.62l-.068.06z" fill="url(#paint0_linear)"></path><path data-v-3a111122="" fill-rule="evenodd" clip-rule="evenodd" d="M23.93 23.501l-3.657-3.658v-.256l3.657-3.658.08.049 4.327 2.459c1.238.698 1.238 1.85 0 2.556l-4.327 2.46-.08.048z" fill="url(#paint1_linear)"></path><path data-v-3a111122="" fill-rule="evenodd" clip-rule="evenodd" d="M24.01 23.453l-3.738-3.737L9.236 30.75c.404.433 1.082.482 1.84.06l12.933-7.358z" fill="url(#paint2_linear)"></path><path data-v-3a111122="" fill-rule="evenodd" clip-rule="evenodd" d="M24.01 15.978L11.074 8.631c-.757-.432-1.437-.373-1.839.06l11.036 11.024 3.738-3.737z" fill="url(#paint3_linear)"></path><path data-v-3a111122="" opacity=".2" fill-rule="evenodd" clip-rule="evenodd" d="M23.93 23.373l-12.846 7.298c-.717.413-1.358.384-1.77.01l-.069.068.069.06c.412.372 1.053.403 1.77-.01l12.934-7.346-.088-.08z" fill="#000"></path><path data-v-3a111122="" opacity=".12" fill-rule="evenodd" clip-rule="evenodd" d="M28.336 20.866l-4.417 2.508.08.08 4.326-2.46c.62-.353.925-.817.925-1.278-.037.424-.353.825-.914 1.15z" fill="#000"></path><path data-v-3a111122="" opacity=".25" fill-rule="evenodd" clip-rule="evenodd" d="M11.075 8.76l17.261 9.805c.56.316.877.729.925 1.15 0-.461-.305-.925-.925-1.278L11.075 8.631c-1.239-.708-2.243-.117-2.243 1.298v.128c0-1.417 1.004-1.998 2.243-1.298z" fill="#fff"></path><defs data-v-3a111122=""><linearGradient data-v-3a111122="" id="paint0_linear" x1="19.297" y1="9.718" x2="1.729" y2="14.399" gradientUnits="userSpaceOnUse"><stop data-v-3a111122="" stop-color="#00A0FF"></stop><stop data-v-3a111122="" offset=".007" stop-color="#00A1FF"></stop><stop data-v-3a111122="" offset=".26" stop-color="#00BEFF"></stop><stop data-v-3a111122="" offset=".512" stop-color="#00D2FF"></stop><stop data-v-3a111122="" offset=".76" stop-color="#00DFFF"></stop><stop data-v-3a111122="" offset="1" stop-color="#00E3FF"></stop></linearGradient><linearGradient data-v-3a111122="" id="paint1_linear" x1="29.952" y1="19.715" x2="8.532" y2="19.715" gradientUnits="userSpaceOnUse"><stop data-v-3a111122="" stop-color="#FFE000"></stop><stop data-v-3a111122="" offset=".409" stop-color="#FFBD00"></stop><stop data-v-3a111122="" offset=".775" stop-color="orange"></stop><stop data-v-3a111122="" offset="1" stop-color="#FF9C00"></stop></linearGradient><linearGradient data-v-3a111122="" id="paint2_linear" x1="21.977" y1="21.75" x2="7.874" y2="45.486" gradientUnits="userSpaceOnUse"><stop data-v-3a111122="" stop-color="#FF3A44"></stop><stop data-v-3a111122="" offset="1" stop-color="#C31162"></stop></linearGradient><linearGradient data-v-3a111122="" id="paint3_linear" x1="6.457" y1="2.169" x2="12.749" y2="12.77" gradientUnits="userSpaceOnUse"><stop data-v-3a111122="" stop-color="#32A071"></stop><stop data-v-3a111122="" offset=".069" stop-color="#2DA771"></stop><stop data-v-3a111122="" offset=".476" stop-color="#15CF74"></stop><stop data-v-3a111122="" offset=".801" stop-color="#06E775"></stop><stop data-v-3a111122="" offset="1" stop-color="#00F076"></stop></linearGradient></defs></svg>