<svg width="20" height="20" xmlns="http://www.w3.org/2000/svg" alt="linkedin icon" viewBox="0 0 15 15" preserveAspectRatio="xMinYMin meet" class=""><path d="M3.358 15H.248V4.985h3.11V15zM1.8 3.62C.807 3.62 0 2.795 0 1.8a1.802 1.802 0 013.602 0c0 .995-.807 1.818-1.801 1.818zM14.997 15h-3.103v-4.875c0-1.162-.024-2.652-1.617-2.652-1.617 0-1.865 1.262-1.865 2.568V15H5.306V4.985h2.982v1.367h.044c.415-.787 1.43-1.618 2.942-1.618C14.421 4.734 15 6.807 15 9.5V15h-.003z" fill-rule="nonzero" fill='white'></path></svg>