<svg width="20" height="20" xmlns="http://www.w3.org/2000/svg" alt="twitter icon" viewBox="0 0 15 15" preserveAspectRatio="xMinYMin meet" class=""><path d="M13.458 4.489c.01.153.01.306.01.46C13.468 9.618 10.374 15 4.72 15 2.979 15 1.36 14.42 0 13.414c.247.033.485.044.742.044 1.438 0 2.76-.558 3.817-1.51-1.352-.032-2.484-1.05-2.874-2.45a2.855 2.855 0 001.39-.066C1.664 9.106.608 7.683.608 5.967v-.044A2.8 2.8 0 002 6.37C1.17 5.736.629 4.653.629 3.428c0-.656.151-1.258.418-1.783C2.56 3.79 4.835 5.19 7.386 5.342a4.56 4.56 0 01-.076-.81C7.31 2.587 8.68 1 10.384 1c.885 0 1.685.427 2.246 1.116a5.6 5.6 0 001.951-.853c-.228.82-.714 1.509-1.351 1.946A5.546 5.546 0 0015 2.663a7.23 7.23 0 01-1.542 1.826z" fill-rule="nonzero" fill='white'></path></svg>