<svg width="11" height="15" fill="none" xmlns="http://www.w3.org/2000/svg" class="g-header-media-ctas__arrow"><path d="M10.417 14.235c.232-1.016-.528-1.152-1.062-1.094-4.784.521-7.591-6.066-5.267-9.86.854.757.797 2.367 2.289 2.483.472.036.874-.06 1.002-.712-1.523-.705-1.71-2.424-2.584-3.665-.39-.556-.783-.78-1.248-.495-1.145.705-2.227 1.515-3.31 2.317-.25.186-.275.525-.143.837.764.484 1.285-.29 2.062-.4-.676 3.694-.056 7.013 2.954 9.47 1.526 1.247 3.39 1.429 5.306 1.118h.001z" fill="#FD6C63"></path></svg>